<?xml version="1.0" encoding="iso-8859-1"?>
<!-- Generator: Adobe Illustrator 19.2.0, SVG Export Plug-In . SVG Version: 6.00 Build 0)  -->
<svg xmlns="http://www.w3.org/2000/svg" xmlns:xlink="http://www.w3.org/1999/xlink" version="1.1" id="Layer_1" x="0px" y="0px" viewBox="0 0 40 40" style="enable-background:new 0 0 40 40;" xml:space="preserve">
<g>
	<path style="fill:#98CCFD;" d="M20.69,32.5c-1.208,0-2.19-0.982-2.19-2.19V3.69c0-1.208,0.982-2.19,2.19-2.19H34.31   c1.208,0,2.19,0.982,2.19,2.19V30.31c0,1.208-0.982,2.19-2.19,2.19H20.69z"/>
	<g>
		<path style="fill:#4788C7;" d="M34.31,2C35.242,2,36,2.758,36,3.69V30.31c0,0.932-0.758,1.69-1.69,1.69H20.69    C19.758,32,19,31.242,19,30.31V3.69C19,2.758,19.758,2,20.69,2H34.31 M34.31,1H20.69C19.205,1,18,2.205,18,3.69V30.31    c0,1.486,1.205,2.69,2.69,2.69H34.31c1.486,0,2.69-1.205,2.69-2.69V3.69C37,2.205,35.795,1,34.31,1L34.31,1z"/>
	</g>
</g>
<g>
	<rect x="18.5" y="4.5" style="fill:#DFF0FE;" width="18" height="25"/>
	<g>
		<path style="fill:#4788C7;" d="M36,5v24H19V5H36 M37,4H18v26h19V4L37,4z"/>
	</g>
</g>
<g>
	<path style="fill:#B6DCFE;" d="M5.69,38.5c-1.208,0-2.19-0.982-2.19-2.19V9.69c0-1.208,0.982-2.19,2.19-2.19H19.31   c1.208,0,2.19,0.982,2.19,2.19V36.31c0,1.208-0.982,2.19-2.19,2.19H5.69z"/>
	<g>
		<path style="fill:#4788C7;" d="M19.31,8C20.242,8,21,8.758,21,9.69V36.31c0,0.932-0.758,1.69-1.69,1.69H5.69    C4.758,38,4,37.242,4,36.31V9.69C4,8.758,4.758,8,5.69,8H19.31 M19.31,7H5.69C4.205,7,3,8.205,3,9.69V36.31    C3,37.795,4.205,39,5.69,39H19.31c1.486,0,2.69-1.205,2.69-2.69V9.69C22,8.205,20.795,7,19.31,7L19.31,7z"/>
	</g>
</g>
<g>
	<rect x="3.5" y="10.5" style="fill:#DFF0FE;" width="18" height="25"/>
	<g>
		<path style="fill:#4788C7;" d="M21,11v24H4V11H21 M22,10H3v26h19V10L22,10z"/>
	</g>
</g>
</svg>
