<?xml version="1.0" encoding="iso-8859-1"?>
<!-- Generator: Adobe Illustrator 21.0.2, SVG Export Plug-In . SVG Version: 6.00 Build 0)  -->
<svg xmlns="http://www.w3.org/2000/svg" xmlns:xlink="http://www.w3.org/1999/xlink" version="1.1" id="Layer_1" x="0px" y="0px" viewBox="0 0 40 40" style="enable-background:new 0 0 40 40;" xml:space="preserve">
<g>
	<polygon style="fill:#FFFFFF;" points="6.5,37.5 6.5,2.5 24.793,2.5 33.5,11.207 33.5,37.5  "/>
	<g>
		<path style="fill:#4788C7;" d="M24.586,3L33,11.414V37H7V3H24.586 M25,2H6v36h28V11L25,2L25,2z"/>
	</g>
</g>
<g>
	<polygon style="fill:#DFF0FE;" points="24.5,11.5 24.5,2.5 24.793,2.5 33.5,11.207 33.5,11.5  "/>
	<g>
		<path style="fill:#4788C7;" d="M25,3.414L32.586,11H25V3.414 M25,2h-1v10h10v-1L25,2L25,2z"/>
	</g>
</g>
<polyline style="fill:none;stroke:#4788C7;stroke-miterlimit:10;" points="13.5,18.5 14.5,18.5 14.5,23 "/>
<path style="fill:none;stroke:#4788C7;stroke-miterlimit:10;" d="M19.5,22.5L19.5,22.5c-0.552,0-1-0.448-1-1v-2c0-0.552,0.448-1,1-1  h0c0.552,0,1,0.448,1,1v2C20.5,22.052,20.052,22.5,19.5,22.5z"/>
<path style="fill:none;stroke:#4788C7;stroke-miterlimit:10;" d="M25.5,22.5L25.5,22.5c-0.552,0-1-0.448-1-1v-2c0-0.552,0.448-1,1-1  h0c0.552,0,1,0.448,1,1v2C26.5,22.052,26.052,22.5,25.5,22.5z"/>
<polyline style="fill:none;stroke:#4788C7;stroke-miterlimit:10;" points="25.5,25.5 26.5,25.5 26.5,30 "/>
<path style="fill:none;stroke:#4788C7;stroke-miterlimit:10;" d="M20.5,29.5L20.5,29.5c-0.552,0-1-0.448-1-1v-2c0-0.552,0.448-1,1-1  h0c0.552,0,1,0.448,1,1v2C21.5,29.052,21.052,29.5,20.5,29.5z"/>
<path style="fill:none;stroke:#4788C7;stroke-miterlimit:10;" d="M14.5,29.5L14.5,29.5c-0.552,0-1-0.448-1-1v-2c0-0.552,0.448-1,1-1  h0c0.552,0,1,0.448,1,1v2C15.5,29.052,15.052,29.5,14.5,29.5z"/>
</svg>
