<?xml version="1.0" encoding="iso-8859-1"?>
<!-- Generator: Adobe Illustrator 19.2.0, SVG Export Plug-In . SVG Version: 6.00 Build 0)  -->
<svg xmlns="http://www.w3.org/2000/svg" xmlns:xlink="http://www.w3.org/1999/xlink" version="1.1" id="Layer_1" x="0px" y="0px" viewBox="0 0 40 40" style="enable-background:new 0 0 40 40;" xml:space="preserve">
<g>
	<path style="fill:#4788C7;" d="M20,2c2.838,0,6,7.392,6,18s-3.162,18-6,18s-6-7.392-6-18S17.162,2,20,2 M20,1   c-3.866,0-7,8.507-7,19s3.134,19,7,19s7-8.507,7-19S23.866,1,20,1L20,1z"/>
</g>
<g>
	<path style="fill:#4788C7;" d="M8.9,8v1c4.118,0,9.744,1.839,15.05,4.92c6.339,3.68,11.138,8.561,11.94,12.146   c0.218,0.973,0.114,1.777-0.309,2.389C34.891,29.451,33.301,30,31.102,30c-4.118,0-9.745-1.839-15.051-4.92   C9.711,21.4,4.913,16.519,4.111,12.935c-0.218-0.973-0.114-1.777,0.309-2.389C5.109,9.549,6.699,9,8.898,9L8.9,8 M8.898,8   C6.415,8,4.521,8.641,3.598,9.977c-2.458,3.56,2.892,10.709,11.951,15.968C21.206,29.23,26.971,31,31.102,31   c2.484,0,4.378-0.641,5.301-1.977c2.458-3.56-2.892-10.709-11.951-15.968C18.794,9.77,13.029,8,8.898,8L8.898,8z"/>
</g>
<g>
	<path style="fill:#4788C7;" d="M31.102,10c2.208,0,3.803,0.524,4.49,1.477c0.403,0.559,0.508,1.29,0.311,2.175   c-0.762,3.42-5.559,8.097-11.937,11.639C18.656,28.24,13.023,30,8.898,30c-2.208,0-3.803-0.524-4.49-1.477   c-0.403-0.559-0.508-1.29-0.311-2.175c0.762-3.42,5.559-8.097,11.937-11.639C21.344,11.76,26.977,10,31.102,10 M31.102,9   c-4.131,0-9.896,1.693-15.553,4.835C6.49,18.866,1.139,25.704,3.598,29.109C4.521,30.387,6.415,31,8.898,31   c4.131,0,9.896-1.693,15.553-4.835c9.059-5.031,14.41-11.869,11.951-15.274C35.479,9.613,33.585,9,31.102,9L31.102,9z"/>
</g>
<g>
	<circle style="fill:#B6DCFE;" cx="20" cy="20" r="3.5"/>
	<path style="fill:#4788C7;" d="M20,17c1.654,0,3,1.346,3,3s-1.346,3-3,3s-3-1.346-3-3S18.346,17,20,17 M20,16c-2.209,0-4,1.791-4,4   s1.791,4,4,4s4-1.791,4-4S22.209,16,20,16L20,16z"/>
</g>
</svg>
