<?xml version="1.0" encoding="iso-8859-1"?>
<!-- Generator: Adobe Illustrator 21.0.2, SVG Export Plug-In . SVG Version: 6.00 Build 0)  -->
<svg xmlns="http://www.w3.org/2000/svg" xmlns:xlink="http://www.w3.org/1999/xlink" version="1.1" id="Layer_1" x="0px" y="0px" viewBox="0 0 40 40" style="enable-background:new 0 0 40 40;" xml:space="preserve">
<g>
	<path style="fill:#4788C7;" d="M24.748,8.162l7.089,7.089l-2.783,7.423L24.6,35.621l-3.45,2.115l-3.443-3.443L17.414,34H17h-5v-5   v-1h-1H6v-5v-0.414l-0.293-0.293L2.265,18.85l2.115-3.45l12.972-4.464L24.748,8.162 M25,7l-8,3L3.714,14.571L1,19l4,4v6h6v6h6l4,4   l4.429-2.714L30,23l3-8L25,7L25,7z"/>
</g>
<g>
	<polygon style="fill:#DFF0FE;" points="17.207,34.5 11.5,34.5 11.5,28.5 5.5,28.5 5.5,22.793 1.632,18.925 4.046,14.985    16.867,10.574 29.426,23.133 25.015,35.954 21.075,38.368  "/>
	<path style="fill:#4788C7;" d="M16.735,11.149l12.117,12.117L24.6,35.621l-3.45,2.115l-3.443-3.443L17.414,34H17h-5v-5v-1h-1H6v-5   v-0.414l-0.293-0.293L2.265,18.85l2.115-3.45L16.735,11.149 M17,10L3.714,14.571L1,19l4,4v6h6v6h6l4,4l4.429-2.714L30,23L17,10   L17,10z"/>
</g>
<line style="fill:none;stroke:#4788C7;stroke-miterlimit:10;" x1="5.538" y1="23.35" x2="27.914" y2="8.341"/>
<line style="fill:none;stroke:#4788C7;stroke-miterlimit:10;" x1="16.734" y1="34.547" x2="31.96" y2="11.475"/>
<line style="fill:none;stroke:#4788C7;stroke-miterlimit:10;" x1="11.245" y1="28.719" x2="29.768" y2="10.196"/>
<g>
	<path style="fill:#DFF0FE;" d="M23.421,7.786l3.719-3.719c0.246-0.273,0.922-0.997,1.306-1.29C29.541,1.941,30.844,1.5,32.214,1.5   c3.466,0,6.286,2.82,6.286,6.286c0,1.369-0.441,2.672-1.276,3.768c-0.294,0.385-1.018,1.061-1.271,1.288l-3.738,3.737L23.421,7.786   z"/>
	<path style="fill:#4788C7;" d="M32.214,2C35.405,2,38,4.595,38,7.786c0,1.26-0.406,2.458-1.174,3.465   c-0.239,0.313-0.868,0.914-1.208,1.22l-0.02,0.018l-0.019,0.019l-3.364,3.364l-8.086-8.086l3.364-3.364l0.019-0.019l0.018-0.02   c0.305-0.34,0.906-0.968,1.219-1.207C29.756,2.406,30.954,2,32.214,2 M32.214,1c-1.534,0-2.941,0.517-4.072,1.38   c-0.506,0.386-1.356,1.335-1.356,1.335l-4.071,4.071l9.5,9.5l4.071-4.071c0,0,0.949-0.851,1.335-1.358   C38.484,10.726,39,9.319,39,7.786C39,4.038,35.962,1,32.214,1L32.214,1z"/>
</g>
<g>
	
		<rect x="27.12" y="4.282" transform="matrix(0.7071 -0.7071 0.7071 0.7071 1.2157 23.935)" style="fill:#98CCFD;" width="4.759" height="12.435"/>
	<path style="fill:#4788C7;" d="M26.786,5.129l8.086,8.086l-2.657,2.657l-8.086-8.086L26.786,5.129 M26.786,3.714l-4.071,4.071   l9.5,9.5l4.071-4.071L26.786,3.714L26.786,3.714z"/>
</g>
</svg>
