<?xml version="1.0" encoding="iso-8859-1"?>
<!-- Generator: Adobe Illustrator 19.2.0, SVG Export Plug-In . SVG Version: 6.00 Build 0)  -->
<svg xmlns="http://www.w3.org/2000/svg" xmlns:xlink="http://www.w3.org/1999/xlink" version="1.1" id="Layer_1" x="0px" y="0px" viewBox="0 0 40 40" style="enable-background:new 0 0 40 40;" xml:space="preserve">
<g>
	<path style="fill:#DFF0FE;" d="M20,38.5c-5.67,0-11.133-2.548-14.612-6.816l-0.35-0.429L1.5,34.793V23.5h11.293l-3.448,3.448   l0.25,0.345C11.958,30.554,15.848,32.5,20,32.5c5.277,0,9.995-3.2,11.853-8h6.067C35.848,32.649,28.409,38.5,20,38.5z"/>
	<g>
		<path style="fill:#4788C7;" d="M11.586,24l-2.293,2.293L8.69,26.896l0.5,0.691C11.646,30.976,15.687,33,20,33    c5.366,0,10.176-3.186,12.19-8h5.075C35.036,32.603,27.966,38,20,38c-5.521,0-10.839-2.479-14.225-6.632L5.076,30.51l-0.783,0.783    L2,33.586V24H11.586 M14,23H1v13l4-4c3.481,4.27,9.06,7,15,7c9.094,0,16.686-6.465,18.552-15h-7.047    c-1.679,4.741-6.188,8-11.504,8c-4.067,0-7.784-1.941-10-5L14,23L14,23z"/>
	</g>
</g>
<g>
	<path style="fill:#DFF0FE;" d="M27.207,16.5l3.448-3.448l-0.25-0.345C28.042,9.446,24.152,7.5,20,7.5c-5.277,0-9.995,3.2-11.853,8   H2.08c2.072-8.149,9.511-14,17.92-14c5.67,0,11.133,2.548,14.612,6.816l0.35,0.429L38.5,5.207V16.5H27.207z"/>
	<g>
		<path style="fill:#4788C7;" d="M20,2c5.521,0,10.839,2.479,14.225,6.632l0.699,0.858l0.783-0.783L38,6.414V16h-9.586l2.293-2.293    l0.603-0.603l-0.5-0.691C28.354,9.024,24.313,7,20,7c-5.366,0-10.176,3.186-12.19,8H2.735C4.964,7.397,12.034,2,20,2 M20,1    C10.906,1,3.314,7.465,1.448,16h7.047C10.174,11.259,14.684,8,20,8c4.067,0,7.784,1.941,10,5l-4,4h13V4l-4,4    C31.519,3.73,25.94,1,20,1L20,1z"/>
	</g>
</g>
<path style="fill:#DFF0FE;" d="M31.68,26.063h5.225c0.127-0.351,0.254-0.702,0.36-1.063H32.19  C32.037,25.365,31.863,25.717,31.68,26.063z"/>
</svg>
