<?xml version="1.0" encoding="iso-8859-1"?>
<!-- Generator: Adobe Illustrator 21.0.2, SVG Export Plug-In . SVG Version: 6.00 Build 0)  -->
<svg xmlns="http://www.w3.org/2000/svg" xmlns:xlink="http://www.w3.org/1999/xlink" version="1.1" x="0px" y="0px" viewBox="0 0 40 40" style="enable-background:new 0 0 40 40;" xml:space="preserve">
<g id="Layer_1">
</g>
<g id="Layer_2">
	<g>
		<rect x="33.5" y="3.5" style="fill:#FFFFFF;" width="5" height="34"/>
		<g>
			<path style="fill:#4788C7;" d="M38,4v33h-4V4H38 M39,3h-6v35h6V3L39,3z"/>
		</g>
	</g>
	<g>
		<rect x="25.5" y="11.5" style="fill:#FFFFFF;" width="5" height="26"/>
		<g>
			<path style="fill:#4788C7;" d="M30,12v25h-4V12H30 M31,11h-6v27h6V11L31,11z"/>
		</g>
	</g>
	<g>
		<rect x="17.5" y="18.5" style="fill:#FFFFFF;" width="5" height="19"/>
		<g>
			<path style="fill:#4788C7;" d="M22,19v18h-4V19H22 M23,18h-6v20h6V18L23,18z"/>
		</g>
	</g>
	<g>
		<rect x="9.5" y="25.5" style="fill:#FFFFFF;" width="5" height="12"/>
		<g>
			<path style="fill:#4788C7;" d="M14,26v11h-4V26H14 M15,25H9v13h6V25L15,25z"/>
		</g>
	</g>
	<g>
		<rect x="1.5" y="30.5" style="fill:#B6DCFE;" width="5" height="7"/>
		<path style="fill:#4788C7;" d="M6,31v6H2v-6H6 M7,30H1v8h6V30L7,30z"/>
	</g>
</g>
</svg>
